# xmcd
#
# Track frame offsets: 
#        150
#        28958
#        48745
#        72868
#        93945
#        112268
#        135545
#        161950
#        184020
#        206845
#        225553
#        245685
#        270365
#        292848
#
# Disc length: 4268 seconds
#
# Revision: 34
# Processed by: cddbd v1.5.2PL0 Copyright (c) Steve Scherf et al.
# Submitted via: ExactAudioCopy v1.3
#
DISCID=d110aa0e
DTITLE=Madonna - Something to Remember
DYEAR=1995
DGENRE=Pop
TTITLE0=I want you (with Massive Attack)
TTITLE1=I'll remember (Theme from the motion picture "With Honors")
TTITLE2=Take a bow
TTITLE3=You'll see
TTITLE4=Crazy for you
TTITLE5=This used to be my playground
TTITLE6=Live to tell
TTITLE7=Love don't live here anymore (remix)
TTITLE8=Something to remember
TTITLE9=Forbidden love
TTITLE10=One more chance
TTITLE11=Rain
TTITLE12=Oh father
TTITLE13=I want you (orchestral)
EXTD=YEAR: 1995
EXTT0=
EXTT1=
EXTT2=
EXTT3=
EXTT4=
EXTT5=
EXTT6=
EXTT7=
EXTT8=
EXTT9=
EXTT10=
EXTT11=
EXTT12=
EXTT13=
PLAYORDER=
